<svg xmlns="http://www.w3.org/2000/svg" viewBox="0 0 108 108"><defs><style>.cls-1{fill:#fff;}.cls-2,.cls-3{fill:none;}.cls-3{stroke:#fff;stroke-width:4px;}</style></defs><title>Asset 1</title><g id="Layer_2" data-name="Layer 2"><g id="Layer_1-2" data-name="Layer 1"><g id="user-2"><g id="Group_9" data-name="Group 9"><path id="Path_18" data-name="Path 18" class="cls-1" d="M63.23,55a18,18,0,0,0,8.66-15.49,18.23,18.23,0,1,0-36.45-.27q0,.13,0,.27A18,18,0,0,0,44.09,55,28.18,28.18,0,0,0,26.32,76h4.56a23.35,23.35,0,0,1,45.57,0H81A27.44,27.44,0,0,0,63.23,55ZM40,39.55A13.67,13.67,0,1,1,53.66,53.22,13.67,13.67,0,0,1,40,39.55Z"/></g></g><g id="Ellipse_25" data-name="Ellipse 25"><circle class="cls-2" cx="54" cy="54" r="54"/><circle class="cls-3" cx="54" cy="54" r="52"/></g><path id="Union_48" data-name="Union 48" class="cls-3" d="M53.7,84.65h0c-2.25-.62-5.25-2.72-8.59-6.74a7.55,7.55,0,0,1,0-9.28,4.82,4.82,0,0,1,7.7,0q.54.65,1,1.27a9.57,9.57,0,0,1,.89-1.27,4.82,4.82,0,0,1,7.7,0,7.55,7.55,0,0,1,0,9.28c-3.25,3.92-6.2,6-8.53,6.74H53.7Z"/></g></g></svg>